# xmcd
#
# Track frame offsets:
#	177
#	12760
#	36265
#	48455
#	58717
#	75182
#	83785
#	96422
#	109292
#	124727
#	135605
#	146530
#	155900
#	169582
#	180180
#	194552
#
# Disc length: 2739
#
# Revision: 1
# Processed by: cddbd v1.5.1PL0 Copyright (c) Steve Scherf et al.
# Submitted via: CDex 1.40Release
# Normalized: r0:DSETVAR1,TDELIM( - )
#
DISCID=d30ab110
DTITLE=Various Artist - Super Country Heroes
DYEAR=1900
DGENRE=Country
TTITLE0=Bobby Bare - 500 Miles Away From Home
TTITLE1=Waylon Jennings - MacArthur Park
TTITLE2=Dolly Parton - Jolene
TTITLE3=George Hamilton - Abilene
TTITLE4=Alabama - Feels So Right
TTITLE5=Skeeter Davis and Bobby Bare - A Dear John Letter
TTITLE6=Jim Reeves - I Love You Because
TTITLE7=Charley Pride - Rhinestone Cowboy
TTITLE8=The Judds - Have Mercy
TTITLE9=Boxcar Willie - Louisiana Saturday Night
TTITLE10=Don Gibson - Lonesome Number One
TTITLE11=Anita Kerr Singers - Night Train To Memphis
TTITLE12=Dolly Parton - Joshua
TTITLE13=Chet Atkins - Oh Lonesome Me
TTITLE14=Willie Nelson - My Own Peculiar Way
TTITLE15=Ronnie Milsap - Daydreams About Nightthings
EXTD=ID3G: 2
EXTT0=
EXTT1=
EXTT2=
EXTT3=
EXTT4=
EXTT5=
EXTT6=
EXTT7=
EXTT8=
EXTT9=
EXTT10=
EXTT11=
EXTT12=
EXTT13=
EXTT14=
EXTT15=
PLAYORDER=
